# xmcd
#
# Track frame offsets:
#	150
#	14879
#	36973
#	46495
#	66955
#	85072
#	95074
#	111513
#	138592
#
# Disc length: 2117 seconds
#
# Revision: 1
# Processed by: cddbd v1.5.2PL0 Copyright (c) Steve Scherf et al.
# Submitted via: audiograbber 1.83.01
#
DISCID=86084309
DTITLE=H6 got the Blues - H6 got the Blues
DYEAR=2012
DGENRE=Ducth Blues
TTITLE0=Volgens mij ben ik getrouwd
TTITLE1=Het is koud zonder jou
TTITLE2=Ik ben een gokker
TTITLE3=Denk je nu niet aan de kinderen
TTITLE4=Want ik hou van jou
TTITLE5=Ik bel
TTITLE6=Eenzaam zonder jou
TTITLE7=Bloed zweet en tranen
TTITLE8=Zij gelooft in mij
EXTD=
EXTT0=
EXTT1=
EXTT2=
EXTT3=
EXTT4=
EXTT5=
EXTT6=
EXTT7=
EXTT8=
PLAYORDER=
